<svg width="32" height="19" viewBox="0 0 32 19" fill="none" xmlns="http://www.w3.org/2000/svg">
<path fill-rule="evenodd" clip-rule="evenodd" d="M15.8173 14.6523C11.2026 10.0523 6.69997 5.55625 2.30931 1.16425C2.06764 0.934362 1.74685 0.806156 1.41331 0.806156C1.07976 0.806156 0.758976 0.934362 0.517308 1.16425C-0.174692 1.78625 -0.114692 2.77025 0.357308 3.21825C4.92131 7.77025 9.69131 12.5323 14.6673 17.5043C14.9913 17.8989 15.374 18.0963 15.8153 18.0963C16.2566 18.0963 16.6513 17.8989 16.9993 17.5043L31.6113 2.53825C31.8749 2.25094 32.0163 1.87227 32.0055 1.4825C31.9946 1.09272 31.8325 0.722485 31.5533 0.450251C30.8353 -0.265748 30.1273 0.0102526 29.7913 0.334252C25.1397 5.11442 20.481 9.88776 15.8153 14.6543" fill="white"/>
</svg>
