<svg width="24" height="24" viewBox="0 0 24 24" fill="none" xmlns="http://www.w3.org/2000/svg">
<path fill-rule="evenodd" clip-rule="evenodd" d="M20.5042 3.488C18.2474 1.24 15.2471 0.001 12.0507 0C5.46418 0 0.103496 5.334 0.100481 11.892C0.0994767 13.988 0.650115 16.034 1.69613 17.838L0 24L6.33435 22.346C8.07971 23.294 10.0451 23.793 12.0447 23.794H12.0497C18.6353 23.794 23.997 18.459 24 11.901C24.002 8.724 22.7601 5.735 20.5042 3.488ZM12.0507 21.785H12.0467C10.2642 21.785 8.51681 21.308 6.9915 20.407L6.62876 20.193L2.86975 21.174L3.87356 17.526L3.63743 17.152C2.64266 15.578 2.11815 13.759 2.11915 11.892C2.12116 6.442 6.57752 2.008 12.0558 2.008C14.7085 2.008 17.2024 3.038 19.0774 4.906C20.9524 6.775 21.9843 9.258 21.9833 11.899C21.9803 17.351 17.525 21.785 12.0507 21.785ZM17.4988 14.382C17.2004 14.233 15.7324 13.514 15.4581 13.415C15.1848 13.316 14.9858 13.266 14.7858 13.563C14.5859 13.86 14.0152 14.53 13.8403 14.729C13.6665 14.927 13.4916 14.952 13.1932 14.803C12.8948 14.654 11.9322 14.341 10.7917 13.328C9.90446 12.54 9.30458 11.567 9.13075 11.269C8.95692 10.971 9.11266 10.811 9.26138 10.663C9.39602 10.53 9.55981 10.316 9.70952 10.142C9.86025 9.97 9.90948 9.846 10.01 9.647C10.1094 9.449 10.0602 9.275 9.98484 9.126C9.90948 8.978 9.31262 7.515 9.06443 6.92C8.82227 6.34 8.57609 6.419 8.39221 6.41C8.21838 6.401 8.01943 6.4 7.81947 6.4C7.62051 6.4 7.29696 6.474 7.02365 6.772C6.75034 7.07 5.97865 7.789 5.97865 9.251C5.97865 10.714 7.04877 12.127 7.19749 12.325C7.3462 12.523 9.30257 15.525 12.2979 16.812C13.0103 17.118 13.567 17.301 14.0001 17.438C14.7155 17.664 15.3666 17.632 15.8811 17.556C16.4548 17.471 17.6476 16.837 17.8968 16.143C18.1459 15.449 18.1459 14.853 18.0706 14.73C17.9962 14.605 17.7973 14.531 17.4988 14.382Z" fill="#1FAF38"/>
</svg>
